<?xml version="1.0" encoding="UTF-8"?>
<svg width="640px" height="192px" viewBox="0 0 640 192" version="1.1" xmlns="http://www.w3.org/2000/svg" xmlns:xlink="http://www.w3.org/1999/xlink">
    <title>art</title>
    <defs>
        <linearGradient x1="100%" y1="77.462814%" x2="20.3754076%" y2="64.272063%" id="linearGradient-1">
            <stop stop-color="#777777" offset="0%"></stop>
            <stop stop-color="#2F2E2E" offset="11.4465327%"></stop>
            <stop stop-color="#2F2E2E" offset="85.2676884%"></stop>
            <stop stop-color="#232222" offset="100%"></stop>
        </linearGradient>
        <path d="M9.89227416,37.5622872 L34.4396569,34.394883 C36.2427966,34.1622198 37.6622198,32.7427966 37.894883,30.9396569 L39.5,18.5 L39.5,18.5 L33.477893,2.58443161 C32.8893532,1.02900481 31.3997969,-2.08185397e-15 29.736748,-1.77635684e-15 L1.5,0 L1.5,0 L0.30928485,12.5025091 C0.10495892,14.6479313 0.310433978,16.8126394 0.914762897,18.8813038 L5.54087234,34.7168322 C6.09310707,36.6071742 7.93911227,37.8143081 9.89227416,37.5622872 Z" id="path-2"></path>
        <filter x="-14.6%" y="-15.8%" width="129.8%" height="130.5%" filterUnits="objectBoundingBox" id="filter-3">
            <feGaussianBlur stdDeviation="2" in="SourceGraphic"></feGaussianBlur>
        </filter>
        <path d="M9.89227416,37.5622872 L34.4396569,34.394883 C36.2427966,34.1622198 37.6622198,32.7427966 37.894883,30.9396569 L39.5,18.5 L39.5,18.5 L33.477893,2.58443161 C32.8893532,1.02900481 31.3997969,-2.08185397e-15 29.736748,-1.77635684e-15 L1.5,0 L1.5,0 L0.30928485,12.5025091 C0.10495892,14.6479313 0.310433978,16.8126394 0.914762897,18.8813038 L5.54087234,34.7168322 C6.09310707,36.6071742 7.93911227,37.8143081 9.89227416,37.5622872 Z" id="path-4"></path>
        <filter x="-14.6%" y="-15.8%" width="129.8%" height="130.5%" filterUnits="objectBoundingBox" id="filter-5">
            <feGaussianBlur stdDeviation="2" in="SourceGraphic"></feGaussianBlur>
        </filter>
        <path d="M9.89227416,37.5622872 L34.4396569,34.394883 C36.2427966,34.1622198 37.6622198,32.7427966 37.894883,30.9396569 L39.5,18.5 L39.5,18.5 L33.477893,2.58443161 C32.8893532,1.02900481 31.3997969,-2.08185397e-15 29.736748,-1.77635684e-15 L1.5,0 L1.5,0 L0.30928485,12.5025091 C0.10495892,14.6479313 0.310433978,16.8126394 0.914762897,18.8813038 L5.54087234,34.7168322 C6.09310707,36.6071742 7.93911227,37.8143081 9.89227416,37.5622872 Z" id="path-6"></path>
        <filter x="-14.6%" y="-15.8%" width="129.8%" height="130.5%" filterUnits="objectBoundingBox" id="filter-7">
            <feGaussianBlur stdDeviation="2" in="SourceGraphic"></feGaussianBlur>
        </filter>
        <path d="M9.89227416,37.5622872 L34.4396569,34.394883 C36.2427966,34.1622198 37.6622198,32.7427966 37.894883,30.9396569 L39.5,18.5 L39.5,18.5 L33.477893,2.58443161 C32.8893532,1.02900481 31.3997969,-2.08185397e-15 29.736748,-1.77635684e-15 L1.5,0 L1.5,0 L0.30928485,12.5025091 C0.10495892,14.6479313 0.310433978,16.8126394 0.914762897,18.8813038 L5.54087234,34.7168322 C6.09310707,36.6071742 7.93911227,37.8143081 9.89227416,37.5622872 Z" id="path-8"></path>
        <filter x="-14.6%" y="-15.8%" width="129.8%" height="130.5%" filterUnits="objectBoundingBox" id="filter-9">
            <feGaussianBlur stdDeviation="2" in="SourceGraphic"></feGaussianBlur>
        </filter>
        <path d="M9.89227416,37.5622872 L34.4396569,34.394883 C36.2427966,34.1622198 37.6622198,32.7427966 37.894883,30.9396569 L39.5,18.5 L39.5,18.5 L33.477893,2.58443161 C32.8893532,1.02900481 31.3997969,-2.08185397e-15 29.736748,-1.77635684e-15 L1.5,0 L1.5,0 L0.30928485,12.5025091 C0.10495892,14.6479313 0.310433978,16.8126394 0.914762897,18.8813038 L5.54087234,34.7168322 C6.09310707,36.6071742 7.93911227,37.8143081 9.89227416,37.5622872 Z" id="path-10"></path>
        <filter x="-14.6%" y="-15.8%" width="129.8%" height="130.5%" filterUnits="objectBoundingBox" id="filter-11">
            <feGaussianBlur stdDeviation="2" in="SourceGraphic"></feGaussianBlur>
        </filter>
        <path d="M9.89227416,37.5622872 L34.4396569,34.394883 C36.2427966,34.1622198 37.6622198,32.7427966 37.894883,30.9396569 L39.5,18.5 L39.5,18.5 L33.477893,2.58443161 C32.8893532,1.02900481 31.3997969,-2.08185397e-15 29.736748,-1.77635684e-15 L1.5,0 L1.5,0 L0.30928485,12.5025091 C0.10495892,14.6479313 0.310433978,16.8126394 0.914762897,18.8813038 L5.54087234,34.7168322 C6.09310707,36.6071742 7.93911227,37.8143081 9.89227416,37.5622872 Z" id="path-12"></path>
        <filter x="-14.6%" y="-15.8%" width="129.8%" height="130.5%" filterUnits="objectBoundingBox" id="filter-13">
            <feGaussianBlur stdDeviation="2" in="SourceGraphic"></feGaussianBlur>
        </filter>
        <path d="M9.89227416,37.5622872 L34.4396569,34.394883 C36.2427966,34.1622198 37.6622198,32.7427966 37.894883,30.9396569 L39.5,18.5 L39.5,18.5 L33.477893,2.58443161 C32.8893532,1.02900481 31.3997969,-2.08185397e-15 29.736748,-1.77635684e-15 L1.5,0 L1.5,0 L0.30928485,12.5025091 C0.10495892,14.6479313 0.310433978,16.8126394 0.914762897,18.8813038 L5.54087234,34.7168322 C6.09310707,36.6071742 7.93911227,37.8143081 9.89227416,37.5622872 Z" id="path-14"></path>
        <filter x="-14.6%" y="-15.8%" width="129.8%" height="130.5%" filterUnits="objectBoundingBox" id="filter-15">
            <feGaussianBlur stdDeviation="2" in="SourceGraphic"></feGaussianBlur>
        </filter>
        <linearGradient x1="100%" y1="71.985466%" x2="20.3754076%" y2="61.4255574%" id="linearGradient-16">
            <stop stop-color="#777777" offset="0%"></stop>
            <stop stop-color="#2F2E2E" offset="11.4465327%"></stop>
            <stop stop-color="#2F2E2E" offset="85.2676884%"></stop>
            <stop stop-color="#232222" offset="100%"></stop>
        </linearGradient>
        <path d="M9.89227416,41.5622872 L34.5761649,38.377269 C36.314793,38.1529299 37.7047583,36.8226397 38.0051266,35.0955223 L39.5,26.5 L39.5,26.5 L33.477893,10.5844316 C32.8893532,9.02900481 31.3997969,8 29.736748,8 L1.5,8 L1.5,8 L0.44894564,16.2332592 C0.152833862,18.5528014 0.338435876,20.908492 0.994146907,23.1530413 L5.54087234,38.7168322 C6.09310707,40.6071742 7.93911227,41.8143081 9.89227416,41.5622872 Z" id="path-17"></path>
        <path d="M9.89227416,41.5622872 L34.5761649,38.377269 C36.314793,38.1529299 37.7047583,36.8226397 38.0051266,35.0955223 L39.5,26.5 L39.5,26.5 L33.477893,10.5844316 C32.8893532,9.02900481 31.3997969,8 29.736748,8 L1.5,8 L1.5,8 L0.44894564,16.2332592 C0.152833862,18.5528014 0.338435876,20.908492 0.994146907,23.1530413 L5.54087234,38.7168322 C6.09310707,40.6071742 7.93911227,41.8143081 9.89227416,41.5622872 Z" id="path-18"></path>
        <path d="M9.89227416,41.5622872 L34.5761649,38.377269 C36.314793,38.1529299 37.7047583,36.8226397 38.0051266,35.0955223 L39.5,26.5 L39.5,26.5 L33.477893,10.5844316 C32.8893532,9.02900481 31.3997969,8 29.736748,8 L1.5,8 L1.5,8 L0.44894564,16.2332592 C0.152833862,18.5528014 0.338435876,20.908492 0.994146907,23.1530413 L5.54087234,38.7168322 C6.09310707,40.6071742 7.93911227,41.8143081 9.89227416,41.5622872 Z" id="path-19"></path>
        <path d="M9.89227416,41.5622872 L34.5761649,38.377269 C36.314793,38.1529299 37.7047583,36.8226397 38.0051266,35.0955223 L39.5,26.5 L39.5,26.5 L33.477893,10.5844316 C32.8893532,9.02900481 31.3997969,8 29.736748,8 L1.5,8 L1.5,8 L0.44894564,16.2332592 C0.152833862,18.5528014 0.338435876,20.908492 0.994146907,23.1530413 L5.54087234,38.7168322 C6.09310707,40.6071742 7.93911227,41.8143081 9.89227416,41.5622872 Z" id="path-20"></path>
        <path d="M9.89227416,41.5622872 L34.5761649,38.377269 C36.314793,38.1529299 37.7047583,36.8226397 38.0051266,35.0955223 L39.5,26.5 L39.5,26.5 L33.477893,10.5844316 C32.8893532,9.02900481 31.3997969,8 29.736748,8 L1.5,8 L1.5,8 L0.44894564,16.2332592 C0.152833862,18.5528014 0.338435876,20.908492 0.994146907,23.1530413 L5.54087234,38.7168322 C6.09310707,40.6071742 7.93911227,41.8143081 9.89227416,41.5622872 Z" id="path-21"></path>
        <path d="M9.89227416,41.5622872 L34.5761649,38.377269 C36.314793,38.1529299 37.7047583,36.8226397 38.0051266,35.0955223 L39.5,26.5 L39.5,26.5 L33.477893,10.5844316 C32.8893532,9.02900481 31.3997969,8 29.736748,8 L1.5,8 L1.5,8 L0.44894564,16.2332592 C0.152833862,18.5528014 0.338435876,20.908492 0.994146907,23.1530413 L5.54087234,38.7168322 C6.09310707,40.6071742 7.93911227,41.8143081 9.89227416,41.5622872 Z" id="path-22"></path>
        <path d="M9.89227416,41.5622872 L34.5761649,38.377269 C36.314793,38.1529299 37.7047583,36.8226397 38.0051266,35.0955223 L39.5,26.5 L39.5,26.5 L33.477893,10.5844316 C32.8893532,9.02900481 31.3997969,8 29.736748,8 L1.5,8 L1.5,8 L0.44894564,16.2332592 C0.152833862,18.5528014 0.338435876,20.908492 0.994146907,23.1530413 L5.54087234,38.7168322 C6.09310707,40.6071742 7.93911227,41.8143081 9.89227416,41.5622872 Z" id="path-23"></path>
    </defs>
    <g id="art" stroke="none" stroke-width="1" fill="none" fill-rule="evenodd">
        <g id="refl" opacity="0.5" transform="translate(261, 28)">
            <g id="body" transform="translate(58, 78)" filter="url(#filter-3)">
                <use fill="#52B469" xlink:href="#path-2"></use>
                <use fill-opacity="0.75" fill="url(#linearGradient-1)" style="mix-blend-mode: luminosity;" xlink:href="#path-2"></use>
            </g>
            <g id="body" transform="translate(76, 0)" filter="url(#filter-5)">
                <use fill="#E3DBBD" xlink:href="#path-4"></use>
                <use fill-opacity="0.5" fill="url(#linearGradient-1)" style="mix-blend-mode: luminosity;" xlink:href="#path-4"></use>
            </g>
            <g id="body" transform="translate(38, 5)" filter="url(#filter-7)">
                <use fill="#EFA73E" xlink:href="#path-6"></use>
                <use fill-opacity="0.75" fill="url(#linearGradient-1)" style="mix-blend-mode: luminosity;" xlink:href="#path-6"></use>
            </g>
            <g id="body" transform="translate(0, 10)" filter="url(#filter-9)">
                <use fill="#BB2757" xlink:href="#path-8"></use>
                <use fill="url(#linearGradient-1)" style="mix-blend-mode: luminosity;" xlink:href="#path-8"></use>
            </g>
            <g id="body" transform="translate(10, 46)" filter="url(#filter-11)">
                <use fill="#912E83" xlink:href="#path-10"></use>
                <use fill="url(#linearGradient-1)" style="mix-blend-mode: luminosity;" xlink:href="#path-10"></use>
            </g>
            <g id="body" transform="translate(20, 83)" filter="url(#filter-13)">
                <use fill="#4974BE" xlink:href="#path-12"></use>
                <use fill="url(#linearGradient-1)" style="mix-blend-mode: luminosity;" xlink:href="#path-12"></use>
            </g>
            <g id="body" transform="translate(30, 119)" filter="url(#filter-15)">
                <use fill="#325379" xlink:href="#path-14"></use>
                <use fill="url(#linearGradient-1)" style="mix-blend-mode: luminosity;" xlink:href="#path-14"></use>
            </g>
        </g>
        <g id="logo" transform="translate(262, 12)">
            <g id="box-green" transform="translate(58, 78)">
                <g id="body">
                    <use fill="#52B469" xlink:href="#path-17"></use>
                    <use fill-opacity="0.75" fill="url(#linearGradient-16)" style="mix-blend-mode: luminosity;" xlink:href="#path-17"></use>
                </g>
                <path d="M11.9620862,33.5672392 L35.949609,30.5687989 C38.1416887,30.2947889 39.6965915,28.2956282 39.4225816,26.1035484 C39.4000403,25.9232183 39.3652357,25.744634 39.3184098,25.5690368 L33.3989924,3.37122169 C32.8838763,1.43953611 31.0216641,0.184791992 29.0379138,0.432760781 L5.05039102,3.43120112 C2.85831126,3.70521109 1.30340848,5.70437181 1.57741845,7.89645157 C1.59995971,8.07678168 1.63476426,8.25536599 1.6815902,8.43096323 L7.60100755,30.6287783 C8.11612371,32.5604639 9.97833593,33.815208 11.9620862,33.5672392 Z" id="surface" fill="#52B469"></path>
            </g>
            <g id="box-white" transform="translate(76, 0)">
                <g id="body">
                    <use fill="#E3DBBD" xlink:href="#path-18"></use>
                    <use fill-opacity="0.5" fill="url(#linearGradient-16)" style="mix-blend-mode: luminosity;" xlink:href="#path-18"></use>
                </g>
                <path d="M11.9620862,33.5672392 L35.949609,30.5687989 C38.1416887,30.2947889 39.6965915,28.2956282 39.4225816,26.1035484 C39.4000403,25.9232183 39.3652357,25.744634 39.3184098,25.5690368 L33.3989924,3.37122169 C32.8838763,1.43953611 31.0216641,0.184791992 29.0379138,0.432760781 L5.05039102,3.43120112 C2.85831126,3.70521109 1.30340848,5.70437181 1.57741845,7.89645157 C1.59995971,8.07678168 1.63476426,8.25536599 1.6815902,8.43096323 L7.60100755,30.6287783 C8.11612371,32.5604639 9.97833593,33.815208 11.9620862,33.5672392 Z" id="surface" fill="#E3DBBD"></path>
            </g>
            <g id="box-orange" transform="translate(38, 5)">
                <g id="body">
                    <use fill="#EFA73E" xlink:href="#path-19"></use>
                    <use fill-opacity="0.75" fill="url(#linearGradient-16)" style="mix-blend-mode: luminosity;" xlink:href="#path-19"></use>
                </g>
                <path d="M11.9620862,33.5672392 L35.949609,30.5687989 C38.1416887,30.2947889 39.6965915,28.2956282 39.4225816,26.1035484 C39.4000403,25.9232183 39.3652357,25.744634 39.3184098,25.5690368 L33.3989924,3.37122169 C32.8838763,1.43953611 31.0216641,0.184791992 29.0379138,0.432760781 L5.05039102,3.43120112 C2.85831126,3.70521109 1.30340848,5.70437181 1.57741845,7.89645157 C1.59995971,8.07678168 1.63476426,8.25536599 1.6815902,8.43096323 L7.60100755,30.6287783 C8.11612371,32.5604639 9.97833593,33.815208 11.9620862,33.5672392 Z" id="surface" fill="#EFA73E"></path>
            </g>
            <g id="box-red" transform="translate(0, 10)">
                <g id="body">
                    <use fill="#BB2757" xlink:href="#path-20"></use>
                    <use fill="url(#linearGradient-16)" style="mix-blend-mode: luminosity;" xlink:href="#path-20"></use>
                </g>
                <path d="M11.9620862,33.5672392 L35.949609,30.5687989 C38.1416887,30.2947889 39.6965915,28.2956282 39.4225816,26.1035484 C39.4000403,25.9232183 39.3652357,25.744634 39.3184098,25.5690368 L33.3989924,3.37122169 C32.8838763,1.43953611 31.0216641,0.184791992 29.0379138,0.432760781 L5.05039102,3.43120112 C2.85831126,3.70521109 1.30340848,5.70437181 1.57741845,7.89645157 C1.59995971,8.07678168 1.63476426,8.25536599 1.6815902,8.43096323 L7.60100755,30.6287783 C8.11612371,32.5604639 9.97833593,33.815208 11.9620862,33.5672392 Z" id="surface" fill="#BB2757"></path>
            </g>
            <g id="box-purple" transform="translate(10, 46)">
                <g id="body">
                    <use fill="#912E83" xlink:href="#path-21"></use>
                    <use fill="url(#linearGradient-16)" style="mix-blend-mode: luminosity;" xlink:href="#path-21"></use>
                </g>
                <path d="M11.9620862,33.5672392 L35.949609,30.5687989 C38.1416887,30.2947889 39.6965915,28.2956282 39.4225816,26.1035484 C39.4000403,25.9232183 39.3652357,25.744634 39.3184098,25.5690368 L33.3989924,3.37122169 C32.8838763,1.43953611 31.0216641,0.184791992 29.0379138,0.432760781 L5.05039102,3.43120112 C2.85831126,3.70521109 1.30340848,5.70437181 1.57741845,7.89645157 C1.59995971,8.07678168 1.63476426,8.25536599 1.6815902,8.43096323 L7.60100755,30.6287783 C8.11612371,32.5604639 9.97833593,33.815208 11.9620862,33.5672392 Z" id="surface" fill="#912E83"></path>
            </g>
            <g id="box-blue" transform="translate(20, 83)">
                <g id="body">
                    <use fill="#4974BE" xlink:href="#path-22"></use>
                    <use fill="url(#linearGradient-16)" style="mix-blend-mode: luminosity;" xlink:href="#path-22"></use>
                </g>
                <path d="M11.9620862,33.5672392 L35.949609,30.5687989 C38.1416887,30.2947889 39.6965915,28.2956282 39.4225816,26.1035484 C39.4000403,25.9232183 39.3652357,25.744634 39.3184098,25.5690368 L33.3989924,3.37122169 C32.8838763,1.43953611 31.0216641,0.184791992 29.0379138,0.432760781 L5.05039102,3.43120112 C2.85831126,3.70521109 1.30340848,5.70437181 1.57741845,7.89645157 C1.59995971,8.07678168 1.63476426,8.25536599 1.6815902,8.43096323 L7.60100755,30.6287783 C8.11612371,32.5604639 9.97833593,33.815208 11.9620862,33.5672392 Z" id="surface" fill="#4974BE"></path>
            </g>
            <g id="box-gray" transform="translate(30, 119)">
                <g id="body">
                    <use fill="#325379" xlink:href="#path-23"></use>
                    <use fill="url(#linearGradient-16)" style="mix-blend-mode: luminosity;" xlink:href="#path-23"></use>
                </g>
                <path d="M11.9620862,33.5672392 L35.949609,30.5687989 C38.1416887,30.2947889 39.6965915,28.2956282 39.4225816,26.1035484 C39.4000403,25.9232183 39.3652357,25.744634 39.3184098,25.5690368 L33.3989924,3.37122169 C32.8838763,1.43953611 31.0216641,0.184791992 29.0379138,0.432760781 L5.05039102,3.43120112 C2.85831126,3.70521109 1.30340848,5.70437181 1.57741845,7.89645157 C1.59995971,8.07678168 1.63476426,8.25536599 1.6815902,8.43096323 L7.60100755,30.6287783 C8.11612371,32.5604639 9.97833593,33.815208 11.9620862,33.5672392 Z" id="surface" fill="#325379"></path>
            </g>
        </g>
    </g>
</svg>